<svg xmlns="http://www.w3.org/2000/svg" width="1080" height="1350" viewBox="0 0 1080 1350">
<rect width="1080" height="1350" fill="#FBF7EF"/>
<rect x="44" y="44" width="992" height="1262" rx="28" fill="none" stroke="#0E5A49" stroke-width="3"/>
<rect x="64" y="64" width="952" height="1222" rx="20" fill="none" stroke="#12A386" stroke-width="1.5"/>
<text x="540" y="150" text-anchor="middle" font-family="Georgia,'DejaVu Serif',serif" font-size="30" fill="#0E5A49" letter-spacing="8">METABOLE</text>
<text x="540" y="150" text-anchor="middle" font-family="Georgia,serif" font-size="14" fill="#5f716c" dx="118" dy="-10">®</text>
<line x1="470" y1="172" x2="610" y2="172" stroke="#C9A24A" stroke-width="1.5"/>
<text x="540" y="210" text-anchor="middle" font-family="Arial,sans-serif" font-size="19" fill="#C9A24A" letter-spacing="7">BREVETTO DI BORDO</text>
<text x="540" y="330" text-anchor="middle" font-family="Georgia,'DejaVu Serif',serif" font-size="66" font-weight="bold" fill="#16302C" letter-spacing="2">MARIASTELLA</text>
<text x="540" y="380" text-anchor="middle" font-family="Arial,sans-serif" font-size="24" fill="#5f716c" letter-spacing="4">VEDETTA</text>
<circle cx="540" cy="650" r="150" fill="none" stroke="#0E5A49" stroke-width="2"/><circle cx="540" cy="650" r="134" fill="none" stroke="#12A386" stroke-width="1"/><line x1="690.0" y1="650.0" x2="703.0" y2="650.0" stroke="#12A386" stroke-width="7" stroke-linecap="round"/><line x1="678.6" y1="707.4" x2="690.6" y2="712.4" stroke="#12A386" stroke-width="7" stroke-linecap="round"/><line x1="646.1" y1="756.1" x2="655.3" y2="765.3" stroke="#12A386" stroke-width="7" stroke-linecap="round"/><line x1="597.4" y1="788.6" x2="602.4" y2="800.6" stroke="#12A386" stroke-width="7" stroke-linecap="round"/><line x1="540.0" y1="800.0" x2="540.0" y2="813.0" stroke="#12A386" stroke-width="7" stroke-linecap="round"/><line x1="482.6" y1="788.6" x2="477.6" y2="800.6" stroke="#12A386" stroke-width="7" stroke-linecap="round"/><line x1="433.9" y1="756.1" x2="424.7" y2="765.3" stroke="#12A386" stroke-width="7" stroke-linecap="round"/><line x1="401.4" y1="707.4" x2="389.4" y2="712.4" stroke="#12A386" stroke-width="7" stroke-linecap="round"/><line x1="390.0" y1="650.0" x2="377.0" y2="650.0" stroke="#12A386" stroke-width="7" stroke-linecap="round"/><line x1="401.4" y1="592.6" x2="389.4" y2="587.6" stroke="#12A386" stroke-width="7" stroke-linecap="round"/><line x1="433.9" y1="543.9" x2="424.7" y2="534.7" stroke="#12A386" stroke-width="7" stroke-linecap="round"/><line x1="482.6" y1="511.4" x2="477.6" y2="499.4" stroke="#12A386" stroke-width="7" stroke-linecap="round"/><line x1="540.0" y1="500.0" x2="540.0" y2="487.0" stroke="#12A386" stroke-width="7" stroke-linecap="round"/><line x1="597.4" y1="511.4" x2="602.4" y2="499.4" stroke="#12A386" stroke-width="7" stroke-linecap="round"/><line x1="646.1" y1="543.9" x2="655.3" y2="534.7" stroke="#12A386" stroke-width="7" stroke-linecap="round"/><line x1="678.6" y1="592.6" x2="690.6" y2="587.6" stroke="#12A386" stroke-width="7" stroke-linecap="round"/><circle cx="540" cy="650" r="96" fill="none" stroke="#0E5A49" stroke-width="2.5"/>
<g transform="translate(540,650) rotate(-22)"><path d="M-58 -12 L28 -18 L28 18 L-58 12 Z" fill="none" stroke="#0E5A49" stroke-width="5"/><path d="M-72 -9 L-58 -12 L-58 12 L-72 9 Z" fill="#0E5A49"/><path d="M28 -18 L44 -24 L44 24 L28 18 Z" fill="none" stroke="#0E5A49" stroke-width="5"/><line x1="-24" y1="-15.5" x2="-24" y2="15.5" stroke="#12A386" stroke-width="3"/><line x1="2" y1="-17" x2="2" y2="17" stroke="#12A386" stroke-width="3"/></g>
<text x="540" y="892" text-anchor="middle" font-family="Georgia,serif" font-style="italic" font-size="34" fill="#16302C">Un buon perché muove tutto.</text>
<text x="540" y="936" text-anchor="middle" font-family="Georgia,serif" font-style="italic" font-size="34" fill="#16302C">Il tuo muoverà questa nave.</text>
<text x="540" y="1000" text-anchor="middle" font-family="Arial,sans-serif" font-size="26" fill="#0E5A49">Il tuo posto, a bordo, è pronto.</text>
<line x1="360" y1="1050" x2="720" y2="1050" stroke="#C9A24A" stroke-width="1.2"/>
<text x="540" y="1092" text-anchor="middle" font-family="Arial,sans-serif" font-size="22" fill="#12A386" letter-spacing="1">La nave è nuova. Ora si salpa.</text>
<text x="540" y="1170" text-anchor="middle" font-family="Georgia,serif" font-style="italic" font-size="34" fill="#16302C">Il tuo capitano</text>
<g transform="translate(540,1225)">
  <circle r="40" fill="#C9A24A" opacity="0.16"/>
  <circle r="40" fill="none" stroke="#C9A24A" stroke-width="2"/>
  <path d="M0 -20 a6 6 0 1 1 -0.1 0 M0 -14 L0 18 M-14 6 A18 18 0 0 0 14 6 M-16 -6 L16 -6" fill="none" stroke="#C9A24A" stroke-width="3" stroke-linecap="round"/>
</g>
</svg>