<svg xmlns="http://www.w3.org/2000/svg" viewBox="0 0 1000 660" width="1000" height="660">
  <defs>
    <style>
      @import url('https://fonts.googleapis.com/css2?family=Poppins:wght@700&amp;display=swap');
      .wm { font-family:'Poppins','Helvetica Neue',Arial,sans-serif; font-weight:700;
            font-size:112px; letter-spacing:-2px; }
    </style>
  </defs>

  <!-- ===== SIMBOLO ===== -->
  <g transform="translate(400,40)">
    <!-- freccia circolare del ciclo -->
    <path d="M146.7,146.7 A 66 66 0 1 1 100,34" fill="none" stroke="#137a55"
          stroke-width="9" stroke-linecap="round"/>
    <path d="M111,34 L95,26 L95,42 Z" fill="#137a55"/>
    <!-- figura in corsa -->
    <g fill="none" stroke="#137a55" stroke-width="9" stroke-linecap="round" stroke-linejoin="round">
      <circle cx="106" cy="50" r="11" fill="#137a55" stroke="none"/>
      <path d="M106,63 C 103,77 99,91 94,103"/>
      <path d="M104,69 C 115,67 123,61 128,52"/>
      <path d="M102,73 C 92,77 84,75 77,69"/>
      <path d="M94,103 C 106,109 114,117 114,127 C 114,135 111,142 108,148"/>
      <path d="M94,103 C 86,113 80,125 74,135 C 71,139 68,141 64,143"/>
    </g>
    <!-- scintilla AI -->
    <path d="M123,98 L128,110 L140,115 L128,120 L123,132 L118,120 L106,115 L118,110 Z"
          fill="#7C3AED"/>
  </g>

  <!-- ===== WORDMARK ===== -->
  <text x="500" y="540" text-anchor="middle" class="wm">
    <tspan fill="#137a55">Metabole</tspan><tspan fill="#7C3AED">AI</tspan>
  </text>
</svg>
