<svg xmlns="http://www.w3.org/2000/svg" width="1080" height="1350" viewBox="0 0 1080 1350">
<defs>
<linearGradient id="cloth" x1="0" y1="0" x2="1" y2="0">
 <stop offset="0" stop-color="#0A473A"/><stop offset="0.5" stop-color="#15795F"/><stop offset="1" stop-color="#0A473A"/>
</linearGradient>
<clipPath id="flag"><path d="M225 175 L855 175 L855 1120 L540.0 1035 L225 1120 Z"/></clipPath>
</defs>
<rect width="1080" height="1350" fill="#FBF7EF"/>
<!-- asta e nappe -->
<rect x="250" y="150" width="580" height="13" rx="6" fill="#0E5A49"/>
<circle cx="250" cy="156" r="11" fill="#C9A24A"/><circle cx="830" cy="156" r="11" fill="#C9A24A"/>
<line x1="292" y1="163" x2="292" y2="189" stroke="#C9A24A" stroke-width="2"/><circle cx="292" cy="193" r="8" fill="#C9A24A"/><line x1="288" y1="199" x2="287" y2="223" stroke="#E4CE92" stroke-width="2"/><line x1="292" y1="201" x2="292" y2="225" stroke="#E4CE92" stroke-width="2"/><line x1="296" y1="199" x2="297" y2="223" stroke="#E4CE92" stroke-width="2"/><line x1="788" y1="163" x2="788" y2="189" stroke="#C9A24A" stroke-width="2"/><circle cx="788" cy="193" r="8" fill="#C9A24A"/><line x1="784" y1="199" x2="783" y2="223" stroke="#E4CE92" stroke-width="2"/><line x1="788" y1="201" x2="788" y2="225" stroke="#E4CE92" stroke-width="2"/><line x1="792" y1="199" x2="793" y2="223" stroke="#E4CE92" stroke-width="2"/>
<line x1="225" y1="163" x2="225" y2="175" stroke="#C9A24A" stroke-width="3"/>
<line x1="855" y1="163" x2="855" y2="175" stroke="#C9A24A" stroke-width="3"/>
<!-- ombra -->
<path d="M232 184 L862 184 L862 1129 L547.0 1044 L232 1129 Z" fill="#000000" opacity="0.12"/>
<!-- telo -->
<path d="M225 175 L855 175 L855 1120 L540.0 1035 L225 1120 Z" fill="url(#cloth)"/>
<g clip-path="url(#flag)">
 <line x1="405" y1="175" x2="405" y2="1120" stroke="#ffffff" stroke-width="2" opacity="0.06"/>
 <line x1="470" y1="175" x2="470" y2="1120" stroke="#000000" stroke-width="3" opacity="0.06"/>
 <line x1="610" y1="175" x2="610" y2="1120" stroke="#ffffff" stroke-width="2" opacity="0.06"/>
 <line x1="675" y1="175" x2="675" y2="1120" stroke="#000000" stroke-width="3" opacity="0.06"/>
</g>
<line x1="225" y1="1120" x2="225" y2="1138" stroke="#C9A24A" stroke-width="3"/><line x1="256" y1="1112" x2="256" y2="1130" stroke="#C9A24A" stroke-width="3"/><line x1="288" y1="1103" x2="288" y2="1121" stroke="#C9A24A" stroke-width="3"/><line x1="320" y1="1094" x2="320" y2="1112" stroke="#C9A24A" stroke-width="3"/><line x1="351" y1="1086" x2="351" y2="1104" stroke="#C9A24A" stroke-width="3"/><line x1="382" y1="1078" x2="382" y2="1096" stroke="#C9A24A" stroke-width="3"/><line x1="414" y1="1069" x2="414" y2="1087" stroke="#C9A24A" stroke-width="3"/><line x1="446" y1="1060" x2="446" y2="1078" stroke="#C9A24A" stroke-width="3"/><line x1="477" y1="1052" x2="477" y2="1070" stroke="#C9A24A" stroke-width="3"/><line x1="508" y1="1044" x2="508" y2="1062" stroke="#C9A24A" stroke-width="3"/><line x1="540" y1="1035" x2="540" y2="1053" stroke="#C9A24A" stroke-width="3"/><line x1="540" y1="1035" x2="540" y2="1053" stroke="#C9A24A" stroke-width="3"/><line x1="572" y1="1044" x2="572" y2="1062" stroke="#C9A24A" stroke-width="3"/><line x1="603" y1="1052" x2="603" y2="1070" stroke="#C9A24A" stroke-width="3"/><line x1="634" y1="1060" x2="634" y2="1078" stroke="#C9A24A" stroke-width="3"/><line x1="666" y1="1069" x2="666" y2="1087" stroke="#C9A24A" stroke-width="3"/><line x1="698" y1="1078" x2="698" y2="1096" stroke="#C9A24A" stroke-width="3"/><line x1="729" y1="1086" x2="729" y2="1104" stroke="#C9A24A" stroke-width="3"/><line x1="760" y1="1094" x2="760" y2="1112" stroke="#C9A24A" stroke-width="3"/><line x1="792" y1="1103" x2="792" y2="1121" stroke="#C9A24A" stroke-width="3"/><line x1="824" y1="1112" x2="824" y2="1130" stroke="#C9A24A" stroke-width="3"/><line x1="855" y1="1120" x2="855" y2="1138" stroke="#C9A24A" stroke-width="3"/>
<line x1="225" y1="1120" x2="225" y2="1146" stroke="#C9A24A" stroke-width="2"/><circle cx="225" cy="1150" r="8" fill="#C9A24A"/><line x1="221" y1="1156" x2="220" y2="1180" stroke="#E4CE92" stroke-width="2"/><line x1="225" y1="1158" x2="225" y2="1182" stroke="#E4CE92" stroke-width="2"/><line x1="229" y1="1156" x2="230" y2="1180" stroke="#E4CE92" stroke-width="2"/><line x1="855" y1="1120" x2="855" y2="1146" stroke="#C9A24A" stroke-width="2"/><circle cx="855" cy="1150" r="8" fill="#C9A24A"/><line x1="851" y1="1156" x2="850" y2="1180" stroke="#E4CE92" stroke-width="2"/><line x1="855" y1="1158" x2="855" y2="1182" stroke="#E4CE92" stroke-width="2"/><line x1="859" y1="1156" x2="860" y2="1180" stroke="#E4CE92" stroke-width="2"/>
<path d="M225 175 L855 175 L855 1120 L540.0 1035 L225 1120 Z" fill="none" stroke="#C9A24A" stroke-width="5"/>
<path d="M240 189 L840 189 L840 1117 L540.0 1019 L240 1117 Z" fill="none" stroke="#E4CE92" stroke-width="1.6" opacity="0.8"/>
<!-- intestazione brand -->
<path d="M382 232 L698 232 L690 268 L390 268 Z" fill="#C9A24A"/>
<text x="540" y="257" text-anchor="middle" font-family="Georgia,'DejaVu Serif',serif" font-size="26" fill="#0E5A49" letter-spacing="1">MetaboleAI</text>
<text x="540" y="252" text-anchor="middle" font-family="Georgia,serif" font-size="12" fill="#0E5A49" dx="92" dy="-9">®</text>
<text x="540" y="308" text-anchor="middle" font-family="Arial,sans-serif" font-size="15" fill="#E4CE92" letter-spacing="6">BREVETTO DI BORDO</text>
<text x="540" y="368" text-anchor="middle" font-family="Georgia,'DejaVu Serif',serif" font-size="78" font-weight="bold" fill="#FBF7EF" letter-spacing="2">SIMONE</text>
<text x="540" y="404" text-anchor="middle" font-family="Arial,sans-serif" font-size="22" fill="#E4CE92" letter-spacing="4">PRIMO UFFICIALE</text>
<g transform="translate(400.9,635.6) rotate(70)"><ellipse cx="10" cy="0" rx="11" ry="4.5" fill="#C9A24A" opacity="0.9"/></g><g transform="translate(422.6,675.1) rotate(52)"><ellipse cx="10" cy="0" rx="11" ry="4.5" fill="#C9A24A" opacity="0.9"/></g><g transform="translate(455.1,706.2) rotate(35)"><ellipse cx="10" cy="0" rx="11" ry="4.5" fill="#C9A24A" opacity="0.9"/></g><g transform="translate(495.5,726.2) rotate(18)"><ellipse cx="10" cy="0" rx="11" ry="4.5" fill="#C9A24A" opacity="0.9"/></g><g transform="translate(540.0,733.0) rotate(0)"><ellipse cx="10" cy="0" rx="11" ry="4.5" fill="#C9A24A" opacity="0.9"/></g><g transform="translate(584.5,726.2) rotate(-18)"><ellipse cx="10" cy="0" rx="11" ry="4.5" fill="#C9A24A" opacity="0.9"/></g><g transform="translate(624.9,706.2) rotate(-35)"><ellipse cx="10" cy="0" rx="11" ry="4.5" fill="#C9A24A" opacity="0.9"/></g><g transform="translate(657.4,675.1) rotate(-52)"><ellipse cx="10" cy="0" rx="11" ry="4.5" fill="#C9A24A" opacity="0.9"/></g><g transform="translate(679.1,635.6) rotate(-70)"><ellipse cx="10" cy="0" rx="11" ry="4.5" fill="#C9A24A" opacity="0.9"/></g><g transform="translate(679.1,635.6) rotate(110)"><ellipse cx="10" cy="0" rx="11" ry="4.5" fill="#C9A24A" opacity="0.9"/></g><g transform="translate(657.4,675.1) rotate(128)"><ellipse cx="10" cy="0" rx="11" ry="4.5" fill="#C9A24A" opacity="0.9"/></g><g transform="translate(624.9,706.2) rotate(145)"><ellipse cx="10" cy="0" rx="11" ry="4.5" fill="#C9A24A" opacity="0.9"/></g><g transform="translate(584.5,726.2) rotate(162)"><ellipse cx="10" cy="0" rx="11" ry="4.5" fill="#C9A24A" opacity="0.9"/></g><g transform="translate(540.0,733.0) rotate(180)"><ellipse cx="10" cy="0" rx="11" ry="4.5" fill="#C9A24A" opacity="0.9"/></g><g transform="translate(495.5,726.2) rotate(198)"><ellipse cx="10" cy="0" rx="11" ry="4.5" fill="#C9A24A" opacity="0.9"/></g><g transform="translate(455.1,706.2) rotate(215)"><ellipse cx="10" cy="0" rx="11" ry="4.5" fill="#C9A24A" opacity="0.9"/></g><g transform="translate(422.6,675.1) rotate(232)"><ellipse cx="10" cy="0" rx="11" ry="4.5" fill="#C9A24A" opacity="0.9"/></g><g transform="translate(400.9,635.6) rotate(250)"><ellipse cx="10" cy="0" rx="11" ry="4.5" fill="#C9A24A" opacity="0.9"/></g>
<circle cx="540" cy="585" r="132" fill="none" stroke="#C9A24A" stroke-width="8"/><line x1="666.0" y1="585.0" x2="678.0" y2="585.0" stroke="#E4CE92" stroke-width="2" opacity="0.55"/><line x1="664.9" y1="601.4" x2="676.8" y2="603.0" stroke="#E4CE92" stroke-width="2" opacity="0.55"/><line x1="661.7" y1="617.6" x2="673.3" y2="620.7" stroke="#E4CE92" stroke-width="2" opacity="0.55"/><line x1="656.4" y1="633.2" x2="667.5" y2="637.8" stroke="#E4CE92" stroke-width="2" opacity="0.55"/><line x1="649.1" y1="648.0" x2="659.5" y2="654.0" stroke="#E4CE92" stroke-width="2" opacity="0.55"/><line x1="640.0" y1="661.7" x2="649.5" y2="669.0" stroke="#E4CE92" stroke-width="2" opacity="0.55"/><line x1="629.1" y1="674.1" x2="637.6" y2="682.6" stroke="#E4CE92" stroke-width="2" opacity="0.55"/><line x1="616.7" y1="685.0" x2="624.0" y2="694.5" stroke="#E4CE92" stroke-width="2" opacity="0.55"/><line x1="603.0" y1="694.1" x2="609.0" y2="704.5" stroke="#E4CE92" stroke-width="2" opacity="0.55"/><line x1="588.2" y1="701.4" x2="592.8" y2="712.5" stroke="#E4CE92" stroke-width="2" opacity="0.55"/><line x1="572.6" y1="706.7" x2="575.7" y2="718.3" stroke="#E4CE92" stroke-width="2" opacity="0.55"/><line x1="556.4" y1="709.9" x2="558.0" y2="721.8" stroke="#E4CE92" stroke-width="2" opacity="0.55"/><line x1="540.0" y1="711.0" x2="540.0" y2="723.0" stroke="#E4CE92" stroke-width="2" opacity="0.55"/><line x1="523.6" y1="709.9" x2="522.0" y2="721.8" stroke="#E4CE92" stroke-width="2" opacity="0.55"/><line x1="507.4" y1="706.7" x2="504.3" y2="718.3" stroke="#E4CE92" stroke-width="2" opacity="0.55"/><line x1="491.8" y1="701.4" x2="487.2" y2="712.5" stroke="#E4CE92" stroke-width="2" opacity="0.55"/><line x1="477.0" y1="694.1" x2="471.0" y2="704.5" stroke="#E4CE92" stroke-width="2" opacity="0.55"/><line x1="463.3" y1="685.0" x2="456.0" y2="694.5" stroke="#E4CE92" stroke-width="2" opacity="0.55"/><line x1="450.9" y1="674.1" x2="442.4" y2="682.6" stroke="#E4CE92" stroke-width="2" opacity="0.55"/><line x1="440.0" y1="661.7" x2="430.5" y2="669.0" stroke="#E4CE92" stroke-width="2" opacity="0.55"/><line x1="430.9" y1="648.0" x2="420.5" y2="654.0" stroke="#E4CE92" stroke-width="2" opacity="0.55"/><line x1="423.6" y1="633.2" x2="412.5" y2="637.8" stroke="#E4CE92" stroke-width="2" opacity="0.55"/><line x1="418.3" y1="617.6" x2="406.7" y2="620.7" stroke="#E4CE92" stroke-width="2" opacity="0.55"/><line x1="415.1" y1="601.4" x2="403.2" y2="603.0" stroke="#E4CE92" stroke-width="2" opacity="0.55"/><line x1="414.0" y1="585.0" x2="402.0" y2="585.0" stroke="#E4CE92" stroke-width="2" opacity="0.55"/><line x1="415.1" y1="568.6" x2="403.2" y2="567.0" stroke="#E4CE92" stroke-width="2" opacity="0.55"/><line x1="418.3" y1="552.4" x2="406.7" y2="549.3" stroke="#E4CE92" stroke-width="2" opacity="0.55"/><line x1="423.6" y1="536.8" x2="412.5" y2="532.2" stroke="#E4CE92" stroke-width="2" opacity="0.55"/><line x1="430.9" y1="522.0" x2="420.5" y2="516.0" stroke="#E4CE92" stroke-width="2" opacity="0.55"/><line x1="440.0" y1="508.3" x2="430.5" y2="501.0" stroke="#E4CE92" stroke-width="2" opacity="0.55"/><line x1="450.9" y1="495.9" x2="442.4" y2="487.4" stroke="#E4CE92" stroke-width="2" opacity="0.55"/><line x1="463.3" y1="485.0" x2="456.0" y2="475.5" stroke="#E4CE92" stroke-width="2" opacity="0.55"/><line x1="477.0" y1="475.9" x2="471.0" y2="465.5" stroke="#E4CE92" stroke-width="2" opacity="0.55"/><line x1="491.8" y1="468.6" x2="487.2" y2="457.5" stroke="#E4CE92" stroke-width="2" opacity="0.55"/><line x1="507.4" y1="463.3" x2="504.3" y2="451.7" stroke="#E4CE92" stroke-width="2" opacity="0.55"/><line x1="523.6" y1="460.1" x2="522.0" y2="448.2" stroke="#E4CE92" stroke-width="2" opacity="0.55"/><line x1="540.0" y1="459.0" x2="540.0" y2="447.0" stroke="#E4CE92" stroke-width="2" opacity="0.55"/><line x1="556.4" y1="460.1" x2="558.0" y2="448.2" stroke="#E4CE92" stroke-width="2" opacity="0.55"/><line x1="572.6" y1="463.3" x2="575.7" y2="451.7" stroke="#E4CE92" stroke-width="2" opacity="0.55"/><line x1="588.2" y1="468.6" x2="592.8" y2="457.5" stroke="#E4CE92" stroke-width="2" opacity="0.55"/><line x1="603.0" y1="475.9" x2="609.0" y2="465.5" stroke="#E4CE92" stroke-width="2" opacity="0.55"/><line x1="616.7" y1="485.0" x2="624.0" y2="475.5" stroke="#E4CE92" stroke-width="2" opacity="0.55"/><line x1="629.1" y1="495.9" x2="637.6" y2="487.4" stroke="#E4CE92" stroke-width="2" opacity="0.55"/><line x1="640.0" y1="508.3" x2="649.5" y2="501.0" stroke="#E4CE92" stroke-width="2" opacity="0.55"/><line x1="649.1" y1="522.0" x2="659.5" y2="516.0" stroke="#E4CE92" stroke-width="2" opacity="0.55"/><line x1="656.4" y1="536.8" x2="667.5" y2="532.2" stroke="#E4CE92" stroke-width="2" opacity="0.55"/><line x1="661.7" y1="552.4" x2="673.3" y2="549.3" stroke="#E4CE92" stroke-width="2" opacity="0.55"/><line x1="664.9" y1="568.6" x2="676.8" y2="567.0" stroke="#E4CE92" stroke-width="2" opacity="0.55"/><circle cx="540" cy="585" r="118" fill="#FBF7EF" stroke="#C9A24A" stroke-width="2"/><g transform="translate(540,585) scale(1.074) translate(-540,-650)"><line x1="588.0" y1="650.0" x2="610.0" y2="650.0" stroke="#0E5A49" stroke-width="11" stroke-linecap="round"/><line x1="578.8" y1="678.2" x2="596.6" y2="691.1" stroke="#0E5A49" stroke-width="11" stroke-linecap="round"/><line x1="554.8" y1="695.7" x2="561.6" y2="716.6" stroke="#0E5A49" stroke-width="11" stroke-linecap="round"/><line x1="525.2" y1="695.7" x2="518.4" y2="716.6" stroke="#0E5A49" stroke-width="11" stroke-linecap="round"/><line x1="501.2" y1="678.2" x2="483.4" y2="691.1" stroke="#0E5A49" stroke-width="11" stroke-linecap="round"/><line x1="492.0" y1="650.0" x2="470.0" y2="650.0" stroke="#0E5A49" stroke-width="11" stroke-linecap="round"/><line x1="501.2" y1="621.8" x2="483.4" y2="608.9" stroke="#0E5A49" stroke-width="11" stroke-linecap="round"/><line x1="525.2" y1="604.3" x2="518.4" y2="583.4" stroke="#0E5A49" stroke-width="11" stroke-linecap="round"/><line x1="554.8" y1="604.3" x2="561.6" y2="583.4" stroke="#0E5A49" stroke-width="11" stroke-linecap="round"/><line x1="578.8" y1="621.8" x2="596.6" y2="608.9" stroke="#0E5A49" stroke-width="11" stroke-linecap="round"/><circle cx="540" cy="650" r="50" fill="#FBF7EF" stroke="#0E5A49" stroke-width="6"/><circle cx="540" cy="650" r="8" fill="none" stroke="#0E5A49" stroke-width="5"/><line x1="548.0" y1="650.0" x2="580.0" y2="650.0" stroke="#0E5A49" stroke-width="5" stroke-linecap="round"/><circle cx="590.0" cy="650.0" r="4.5" fill="#0E5A49"/><line x1="545.7" y1="655.7" x2="568.3" y2="678.3" stroke="#0E5A49" stroke-width="5" stroke-linecap="round"/><circle cx="575.4" cy="685.4" r="4.5" fill="#0E5A49"/><line x1="540.0" y1="658.0" x2="540.0" y2="690.0" stroke="#0E5A49" stroke-width="5" stroke-linecap="round"/><circle cx="540.0" cy="700.0" r="4.5" fill="#0E5A49"/><line x1="534.3" y1="655.7" x2="511.7" y2="678.3" stroke="#0E5A49" stroke-width="5" stroke-linecap="round"/><circle cx="504.6" cy="685.4" r="4.5" fill="#0E5A49"/><line x1="532.0" y1="650.0" x2="500.0" y2="650.0" stroke="#0E5A49" stroke-width="5" stroke-linecap="round"/><circle cx="490.0" cy="650.0" r="4.5" fill="#0E5A49"/><line x1="534.3" y1="644.3" x2="511.7" y2="621.7" stroke="#0E5A49" stroke-width="5" stroke-linecap="round"/><circle cx="504.6" cy="614.6" r="4.5" fill="#0E5A49"/><line x1="540.0" y1="642.0" x2="540.0" y2="610.0" stroke="#0E5A49" stroke-width="5" stroke-linecap="round"/><circle cx="540.0" cy="600.0" r="4.5" fill="#0E5A49"/><line x1="545.7" y1="644.3" x2="568.3" y2="621.7" stroke="#0E5A49" stroke-width="5" stroke-linecap="round"/><circle cx="575.4" cy="614.6" r="4.5" fill="#0E5A49"/></g>
<text x="540" y="792" text-anchor="middle" font-family="Georgia,serif" font-style="italic" font-size="26" fill="#FBF7EF">In poco tempo, senza dormire,</text>
<text x="540" y="825" text-anchor="middle" font-family="Georgia,serif" font-style="italic" font-size="26" fill="#FBF7EF">abbiamo ricostruito la nave.</text>
<text x="540" y="895" text-anchor="middle" font-family="Arial,sans-serif" font-size="22" fill="#E4CE92">Ogni ingranaggio porta la tua firma.</text>
<line x1="410" y1="936" x2="670" y2="936" stroke="#C9A24A" stroke-width="1.2"/>
<text x="540" y="974" text-anchor="middle" font-family="Arial,sans-serif" font-size="21" fill="#FBF7EF" letter-spacing="1">La nave è nuova. Ora si salpa.</text>
<text x="540" y="1018" text-anchor="middle" font-family="Georgia,serif" font-style="italic" font-size="27" fill="#E4CE92">Il tuo capitano</text>
</svg>